<?xml version="1.0" encoding="utf-8"?>
<svg xmlns="http://www.w3.org/2000/svg"
     xmlns:xlink="http://www.w3.org/1999/xlink"
     width="22px" height="15px" viewBox="0 0 22 15">
    <path fillRule="evenodd"
          d="M-0-0C-0-0-0 0.8-0 0.8-0 0.8-0 14.2-0 14.2-0 14.2-0 15-0 15-0 15 22 15 22 15 22 15 22 14.2 22 14.2 22 14.2 22 0.8 22 0.8 22 0.8 22-0 22-0 22-0-0-0-0-0ZM 13.43 7.7C 13.43 7.7 11.43 9.6 11.43 9.6 11.19 9.82 10.81 9.82 10.58 9.61 10.58 9.61 8.57 7.7 8.57 7.7 8.57 7.7 8.59 7.68 8.59 7.68 8.59 7.68 1.34 0.7 1.34 0.7 1.34 0.7 20.67 0.7 20.67 0.7 20.67 0.7 13.41 7.68 13.41 7.68 13.41 7.68 13.43 7.7 13.43 7.7ZM 7.53 7.69C 7.53 7.69 0.73 13.9 0.73 13.9 0.73 13.9 0.73 1.19 0.73 1.19 0.73 1.19 7.53 7.69 7.53 7.69ZM 8.04 8.18C 8.04 8.18 10.07 10.12 10.07 10.12 10.33 10.35 10.66 10.46 11 10.46 11.33 10.46 11.67 10.34 11.94 10.11 11.94 10.11 13.96 8.18 13.96 8.18 13.96 8.18 20.64 14.3 20.64 14.3 20.64 14.3 1.35 14.3 1.35 14.3 1.35 14.3 8.04 8.18 8.04 8.18ZM 14.47 7.69C 14.47 7.69 21.27 1.19 21.27 1.19 21.27 1.19 21.27 13.9 21.27 13.9 21.27 13.9 14.47 7.69 14.47 7.69Z"
          fill="rgb(137,39,55)"/>
</svg>