<?xml version="1.0" encoding="utf-8"?>
<svg xmlns="http://www.w3.org/2000/svg"
     xmlns:xlink="http://www.w3.org/1999/xlink"
     width="21px" height="21px" viewBox="0 0 21 21">
    <clipPath id="clip0">
        <path fillRule="evenodd"
              d="M 20.99 16.57C 21.03 16.91 20.93 17.21 20.68 17.46 20.68 17.46 17.72 20.4 17.72 20.4 17.59 20.55 17.41 20.67 17.2 20.78 16.98 20.88 16.77 20.95 16.57 20.98 16.55 20.98 16.51 20.98 16.43 20.99 16.36 21 16.26 21 16.14 21 15.86 21 15.41 20.95 14.78 20.85 14.15 20.76 13.38 20.52 12.46 20.14 11.55 19.76 10.52 19.2 9.36 18.44 8.21 17.68 6.98 16.65 5.67 15.33 4.63 14.3 3.78 13.32 3.09 12.39 2.41 11.46 1.86 10.59 1.45 9.8 1.03 9 0.72 8.29 0.51 7.64 0.31 7 0.17 6.44 0.09 5.97 0.02 5.5-0.01 5.14 0 4.87 0.02 4.6 0.03 4.46 0.03 4.43 0.06 4.22 0.12 4.01 0.23 3.79 0.33 3.58 0.46 3.4 0.6 3.27 0.6 3.27 3.56 0.31 3.56 0.31 3.77 0.1 4-0 4.27-0 4.46-0 4.63 0.05 4.78 0.17 4.93 0.28 5.06 0.41 5.16 0.58 5.16 0.58 7.54 5.09 7.54 5.09 7.67 5.33 7.71 5.59 7.65 5.87 7.59 6.15 7.47 6.39 7.27 6.58 7.27 6.58 6.18 7.67 6.18 7.67 6.15 7.7 6.13 7.75 6.11 7.82 6.08 7.89 6.07 7.94 6.07 7.98 6.13 8.3 6.26 8.65 6.47 9.05 6.65 9.41 6.92 9.84 7.3 10.35 7.67 10.87 8.19 11.46 8.87 12.12 9.54 12.81 10.13 13.34 10.65 13.71 11.17 14.09 11.6 14.37 11.95 14.55 12.3 14.73 12.57 14.83 12.75 14.87 12.75 14.87 13.03 14.93 13.03 14.93 13.06 14.93 13.11 14.91 13.18 14.89 13.24 14.87 13.29 14.84 13.32 14.81 13.32 14.81 14.59 13.52 14.59 13.52 14.85 13.29 15.16 13.17 15.52 13.17 15.77 13.17 15.97 13.21 16.12 13.3 16.12 13.3 16.14 13.3 16.14 13.3 16.14 13.3 20.43 15.84 20.43 15.84 20.74 16.03 20.93 16.28 20.99 16.57Z"/>
    </clipPath>
    <path fillRule="evenodd"
          d="M 20.99 16.57C 21.03 16.91 20.93 17.21 20.68 17.46 20.68 17.46 17.72 20.4 17.72 20.4 17.59 20.55 17.41 20.67 17.2 20.78 16.98 20.88 16.77 20.95 16.57 20.98 16.55 20.98 16.51 20.98 16.43 20.99 16.36 21 16.26 21 16.14 21 15.86 21 15.41 20.95 14.78 20.85 14.15 20.76 13.38 20.52 12.46 20.14 11.55 19.76 10.52 19.2 9.36 18.44 8.21 17.68 6.98 16.65 5.67 15.33 4.63 14.3 3.78 13.32 3.09 12.39 2.41 11.46 1.86 10.59 1.45 9.8 1.03 9 0.72 8.29 0.51 7.64 0.31 7 0.17 6.44 0.09 5.97 0.02 5.5-0.01 5.14 0 4.87 0.02 4.6 0.03 4.46 0.03 4.43 0.06 4.22 0.12 4.01 0.23 3.79 0.33 3.58 0.46 3.4 0.6 3.27 0.6 3.27 3.56 0.31 3.56 0.31 3.77 0.1 4-0 4.27-0 4.46-0 4.63 0.05 4.78 0.17 4.93 0.28 5.06 0.41 5.16 0.58 5.16 0.58 7.54 5.09 7.54 5.09 7.67 5.33 7.71 5.59 7.65 5.87 7.59 6.15 7.47 6.39 7.27 6.58 7.27 6.58 6.18 7.67 6.18 7.67 6.15 7.7 6.13 7.75 6.11 7.82 6.08 7.89 6.07 7.94 6.07 7.98 6.13 8.3 6.26 8.65 6.47 9.05 6.65 9.41 6.92 9.84 7.3 10.35 7.67 10.87 8.19 11.46 8.87 12.12 9.54 12.81 10.13 13.34 10.65 13.71 11.17 14.09 11.6 14.37 11.95 14.55 12.3 14.73 12.57 14.83 12.75 14.87 12.75 14.87 13.03 14.93 13.03 14.93 13.06 14.93 13.11 14.91 13.18 14.89 13.24 14.87 13.29 14.84 13.32 14.81 13.32 14.81 14.59 13.52 14.59 13.52 14.85 13.29 15.16 13.17 15.52 13.17 15.77 13.17 15.97 13.21 16.12 13.3 16.12 13.3 16.14 13.3 16.14 13.3 16.14 13.3 20.43 15.84 20.43 15.84 20.74 16.03 20.93 16.28 20.99 16.57Z"
          fill="none" stroke="rgb(255,255,255)" stroke-width="2.00px" clip-path="url(#clip0)"/>
</svg>