<?xml version="1.0" encoding="utf-8"?>
<svg xmlns="http://www.w3.org/2000/svg"
     xmlns:xlink="http://www.w3.org/1999/xlink"
     width="26px" height="25px" viewBox="0 0 26 25">
    <path fillRule="evenodd"
          d="M 25.88 24.82C 25.78 24.93 25.64 25 25.48 25 25.48 25 0.52 25 0.52 25 0.36 25 0.22 24.93 0.12 24.82 0.02 24.7-0.02 24.55 0.01 24.41 0.01 24.41 0.51 21.72 0.51 21.72 0.79 20.21 1.53 18.84 2.64 17.76 3.74 16.69 5.12 15.98 6.65 15.7 6.65 15.7 6.65 15.7 6.65 15.7 7.12 15.62 7.6 15.57 8.07 15.57 8.07 15.57 9.58 15.57 9.58 15.57 9.72 15.57 9.85 15.62 9.95 15.72 9.95 15.72 13 18.69 13 18.69 13 18.69 16.05 15.72 16.05 15.72 16.15 15.62 16.28 15.57 16.42 15.57 16.42 15.57 17.93 15.57 17.93 15.57 18.4 15.57 18.88 15.62 19.35 15.7 20.88 15.98 22.26 16.69 23.36 17.76 24.47 18.84 25.21 20.21 25.49 21.72 25.49 21.72 25.99 24.41 25.99 24.41 26.02 24.55 25.98 24.7 25.88 24.82ZM 9.37 16.58C 9.37 16.58 8.07 16.58 8.07 16.58 8.01 16.58 7.94 16.58 7.87 16.58 7.87 16.58 11.52 20.13 11.52 20.13 11.52 20.13 12.27 19.4 12.27 19.4 12.27 19.4 9.37 16.58 9.37 16.58ZM 17.93 16.58C 17.93 16.58 16.63 16.58 16.63 16.58 16.63 16.58 13.37 19.76 13.37 19.76 13.37 19.76 12.25 20.84 12.25 20.84 12.25 20.84 13 21.57 13 21.57 13 21.57 18.13 16.58 18.13 16.58 18.06 16.58 17.99 16.58 17.93 16.58ZM 24.51 22.06C 24.04 19.52 21.99 17.32 19.43 16.75 19.43 16.75 13.37 22.64 13.37 22.64 13.35 22.65 13.34 22.66 13.33 22.67 13.14 22.82 12.86 22.82 12.67 22.67 12.66 22.66 12.65 22.65 12.63 22.64 12.63 22.64 6.57 16.75 6.57 16.75 4.01 17.32 2 19.36 1.53 21.9 1.53 21.9 0.74 24.26 0.74 24.26 0.74 24.26 25.26 24.26 25.26 24.26 25.26 24.26 24.51 22.06 24.51 22.06ZM 7.51 13.91C 7.8 13.91 8.03 14.14 8.03 14.41 8.03 14.41 8.03 14.62 8.03 14.62 8.03 14.89 7.8 15.12 7.51 15.12 7.22 15.12 6.99 14.89 6.99 14.62 6.99 14.62 6.99 14.41 6.99 14.41 6.99 14.14 7.22 13.91 7.51 13.91ZM 19.73 9.83C 19.72 9.92 19.55 11.87 18.05 12.65 17.75 12.81 17.42 12.9 17.06 12.94 16.63 13.56 16.05 14.09 15.35 14.47 14.61 14.86 13.81 15.06 13 15.06 12.19 15.06 11.39 14.86 10.65 14.47 9.27 13.73 8.35 12.4 8.17 10.89 8.17 10.89 8.03 10.89 8.03 10.89 8.03 10.89 8.03 12.9 8.03 12.9 8.03 13.18 7.8 13.41 7.51 13.41 7.22 13.41 6.99 13.18 6.99 12.9 6.99 12.9 6.99 10.82 6.99 10.82 6.57 10.67 6.26 10.3 6.22 9.84 6.22 9.84 6.02 7.6 6.02 7.6 5.99 7.28 6.1 6.96 6.33 6.72 6.55 6.49 6.87 6.35 7.2 6.35 7.2 6.35 7.86 6.35 7.86 6.35 7.86 6.35 7.83 5.94 7.83 5.94 7.83 5.94 7.69 3.94 7.69 3.94 7.62 2.91 7.99 1.92 8.71 1.17 9.44 0.41 10.43-0 11.49-0 11.49-0 14.51-0 14.51-0 15.57-0 16.56 0.41 17.29 1.17 18.01 1.92 18.38 2.91 18.31 3.94 18.31 3.94 18.22 5.28 18.22 5.28 18.22 5.28 18.14 6.35 18.14 6.35 18.14 6.35 18.75 6.35 18.75 6.35 19.08 6.35 19.4 6.49 19.62 6.72 19.84 6.96 19.96 7.28 19.93 7.6 19.93 7.6 19.73 9.83 19.73 9.83 19.73 9.83 19.73 9.83 19.73 9.83ZM 8.17 7.35C 8.17 7.35 7.2 7.36 7.2 7.36 7.14 7.36 7.11 7.39 7.09 7.41 7.07 7.43 7.05 7.46 7.05 7.51 7.05 7.51 7.25 9.75 7.25 9.75 7.26 9.82 7.35 10.29 7.43 10.29 7.43 10.29 8.17 10.29 8.17 10.29 8.17 10.29 8.17 7.35 8.17 7.35ZM 9.18 10.56C 9.26 11.84 10 12.97 11.15 13.58 12.31 14.2 13.69 14.2 14.85 13.58 15.22 13.39 15.55 13.13 15.82 12.84 15.35 12.73 14.85 12.54 14.32 12.28 14.13 12.39 13.91 12.45 13.67 12.45 12.96 12.45 12.38 11.88 12.38 11.19 12.38 10.49 12.96 9.93 13.67 9.93 14.39 9.93 14.97 10.49 14.97 11.19 14.97 11.28 14.96 11.37 14.94 11.45 15.51 11.72 16.01 11.88 16.46 11.93 16.67 11.51 16.79 11.05 16.82 10.56 16.82 10.56 17.15 5.64 17.15 5.64 16.2 5.41 15.5 5.19 15.08 4.98 14.7 4.78 14.4 4.57 14.19 4.33 13.4 5.08 11.81 6.12 8.89 6.38 8.89 6.38 9.18 10.56 9.18 10.56ZM 13.93 11.19C 13.93 11.05 13.82 10.94 13.67 10.94 13.53 10.94 13.41 11.05 13.41 11.19 13.41 11.33 13.53 11.44 13.67 11.44 13.82 11.44 13.93 11.33 13.93 11.19ZM 14.51 1.01C 14.51 1.01 11.49 1.01 11.49 1.01 10.71 1.01 10 1.31 9.47 1.86 8.94 2.41 8.68 3.12 8.73 3.87 8.73 3.87 8.91 5.15 8.91 5.15 12.69 4.8 13.78 3.31 13.91 3.1 13.91 3.1 14.71 1.01 14.71 1.01 14.65 1.01 14.58 1.01 14.51 1.01ZM 16.53 1.86C 16.29 1.61 16.02 1.42 15.72 1.27 15.72 1.27 14.86 3.49 14.86 3.49 14.86 3.49 14.86 3.49 14.86 3.49 14.86 3.49 14.86 3.49 14.86 3.49 14.87 3.56 14.99 3.8 15.56 4.08 15.79 4.2 16.26 4.38 17.22 4.61 17.22 4.61 17.27 3.87 17.27 3.87 17.32 3.12 17.06 2.41 16.53 1.86ZM 18.36 10.89C 18.36 10.89 17.83 10.89 17.83 10.89 17.8 11.17 17.74 11.44 17.66 11.71 17.98 11.5 18.21 11.2 18.36 10.89ZM 18.86 7.41C 18.84 7.39 18.8 7.36 18.75 7.36 18.75 7.36 17.83 7.35 17.83 7.35 17.83 7.35 17.83 10.29 17.83 10.29 17.83 10.29 18.57 10.29 18.57 10.29 18.65 10.29 18.69 9.82 18.7 9.75 18.7 9.75 18.9 7.51 18.9 7.51 18.9 7.46 18.88 7.43 18.86 7.41Z"
          fill="rgb(137,39,55)"/>
</svg>